{"title":"Where.Hope.Grows.2015.WEBRip.480p.x264.AAC-VYTO [P2PDL]","uid":12222225,"size":375505775,"categoryP":"video","categoryS":"movies","magnet":"?xt=urn:btih:de52f7fd2de12cc44fdb051c9f4c696cacc5dfa9&amp;dn=Where.Hope.Grows.2015.WEBRip.480p.x264.AAC-VYTO+%5BP2PDL%5D&amp;tr=udp%3A%2F%2Ftracker.openbittorrent.com%3A80&amp;tr=udp%3A%2F%2Fopen.demonii.com%3A1337&amp;tr=udp%3A%2F%2Ftracker.coppersurfer.tk%3A6969&amp;tr=udp%3A%2F%2Fexodus.desync.com%3A6969","seeders":4,"leechers":1,"uploader":"ValidusVyto","files":7,"time":1439339457,"description":"____    ____ ____    ____ .___________.  ______   \n     /   /      /   / |           | /  __    \n    /   /      /   /  `---|  |----`|  |  |  | \n        /     _    _/       |  |     |  |  |  | \n       /        |  |         |  |     |  `--'  | \n    __/         |__|         |__|      ______/  \n                                                  \nPresenting Small Encodes with quality for years!\n                                                                                                   \n                                                                                                   \n\nWhere.Hope.Grows.2015.WEBRip.480p.x264.AAC-VYTO\n\n\nGenre:  Drama  &lt;a href=&quot;\nhttp://www.imdb.com/title/tt3200980/&quot; rel=&quot;nofollow&quot; target=&quot;_NEW&quot;&gt;\nhttp://www.imdb.com/title/tt3200980/&lt;/a&gt;\n\n\nGeneral\nFormat                         : MPEG-4\nFile size                      : 351 MiB\nDuration                       : 1h 38mn\nOverall bit rate               : 500 Kbps\n\nVideo\nFormat                         : AVC\nBit rate                       : 465 Kbps\nWidth                          : 720 pixels\nHeight                         : 304 pixels\nDisplay aspect ratio           : 2.35:1\nFrame rate mode                : Constant\nFrame rate                     : 23.976 fps\nColor space                    : YUV\nChroma subsampling             : 4:2:0\nBit depth                      : 8 bit\nStream size                    : 327 MiB (93%)\nWriting library                : x264 core 148 r2579\n\nAudio\nFormat                         : AAC\nBit rate mode                  : Variable\nBit rate                       : 32.0 Kbps\nChannel(s)                     : 2 channels\nChannel positions              : Front: L R \nSampling rate                  : 48.0 KHz \nStream size                    : 22.5 MiB (6%)\nLanguage                       : English\n\nSubtitle                       : Yes\t\t\n\nScreenshots:\n &lt;a href=&quot;\nhttp://ititli.com/GO&quot; rel=&quot;nofollow&quot; target=&quot;_NEW&quot;&gt;\nhttp://ititli.com/GO&lt;/a&gt; &lt;a href=&quot;\nhttp://ititli.com/H9&quot; rel=&quot;nofollow&quot; target=&quot;_NEW&quot;&gt;\nhttp://ititli.com/H9&lt;/a&gt; &lt;a href=&quot;\nhttp://ititli.com/HX&quot; rel=&quot;nofollow&quot; target=&quot;_NEW&quot;&gt;\nhttp://ititli.com/HX&lt;/a&gt; &lt;a href=&quot;\nhttp://ititli.com/Hq&quot; rel=&quot;nofollow&quot; target=&quot;_NEW&quot;&gt;\nhttp://ititli.com/Hq&lt;/a&gt; &lt;a href=&quot;\nhttp://ititli.com/Hr&quot; rel=&quot;nofollow&quot; target=&quot;_NEW&quot;&gt;\nhttp://ititli.com/Hr&lt;/a&gt; &lt;a href=&quot;\nhttp://ititli.com/H1&quot; rel=&quot;nofollow&quot; target=&quot;_NEW&quot;&gt;\nhttp://ititli.com/H1&lt;/a&gt; &lt;a href=&quot;\nhttp://ititli.com/HT&quot; rel=&quot;nofollow&quot; target=&quot;_NEW&quot;&gt;\nhttp://ititli.com/HT&lt;/a&gt; &lt;a href=&quot;\nhttp://ititli.com/HW&quot; rel=&quot;nofollow&quot; target=&quot;_NEW&quot;&gt;\nhttp://ititli.com/HW&lt;/a&gt; &lt;a href=&quot;\nhttp://ititli.com/Hg&quot; rel=&quot;nofollow&quot; target=&quot;_NEW&quot;&gt;\nhttp://ititli.com/Hg&lt;/a&gt; &lt;a href=&quot;\nhttp://ititli.com/Hn&quot; rel=&quot;nofollow&quot; target=&quot;_NEW&quot;&gt;\nhttp://ititli.com/Hn&lt;/a&gt; &lt;a href=&quot;\nhttp://ititli.com/Hw&quot; rel=&quot;nofollow&quot; target=&quot;_NEW&quot;&gt;\nhttp://ititli.com/Hw&lt;/a&gt; &lt;a href=&quot;\nhttp://ititli.com/H2&quot; rel=&quot;nofollow&quot; target=&quot;_NEW&quot;&gt;\nhttp://ititli.com/H2&lt;/a&gt;\n\n----------------------------------------------------------------------------------------------------\n\n\nEncoder Notes: Looking For Early Access To Anything You Can Provide DVDScr, R5, DVDR, BluRay, Direct\nAudio, Music Releases and Seedboxes. If You Got anything to offer please contact us.\n\nSupport us by donating BC - 1FgwdzPsd1y25Gea8wP1qni35uGCtmkRCD","torrent":{"xt":"urn:btih:de52f7fd2de12cc44fdb051c9f4c696cacc5dfa9","amp;dn":"Where.Hope.Grows.2015.WEBRip.480p.x264.AAC-VYTO+%5BP2PDL%5D","amp;tr":["udp%3A%2F%2Ftracker.openbittorrent.com%3A80","udp%3A%2F%2Fopen.demonii.com%3A1337","udp%3A%2F%2Ftracker.coppersurfer.tk%3A6969","udp%3A%2F%2Fexodus.desync.com%3A6969"],"infoHash":"de52f7fd2de12cc44fdb051c9f4c696cacc5dfa9","infoHashBuffer":{"type":"Buffer","data":[222,82,247,253,45,225,44,196,79,219,5,28,159,76,105,108,172,197,223,169]},"announce":[],"urlList":[]}}